Genre:Comedy | Family
Language:English
IMDb:http://www.imdb.com/title/tt1230387/
Source:Prosto.Pek.2009.P.DVDRip

General
Complete name :Just Peck 2010 R5 XviD Ac3 Feel-Free
Format : AVI
Format/Info : Audio Video Interleave
File size : 744 MiB
Duration : 1h 29mn
Overall bit rate : 1 169 Kbps
Video #0
Codec ID : XVID
Codec ID/Hint : XviD
Duration : 1h 29mn
Bit rate : 903 Kbps
Width : 720 pixels
Height : 384 pixels
Display aspect ratio : 1.875
Frame rate : 25.000 fps
Resolution : 24 bits
Colorimetry : 4:2:0
Scan type : Progressive
Bits/(Pixel*Frame) : 0.131
Stream size : 575 MiB (77%)
Writing library : XviD 1.2.1 (UTC 2008-12-04)
Audio #1
ID : 1
Format : AC-3
Format/Info : Audio Coding 3
Codec ID : 2000
Duration : 1h 29mn
Bit rate mode : Constant
Bit rate : 256 Kbps
Channel(s) : 6 channels
Channel positions : Front: L C R, Surround: L R, LFE
Sampling rate : 48.0 KHz
Stream size : 163 MiB (22%)
Alignment : Split accross interleaves
Interleave, duration : 40 ms (1.00 video frame)
Interleave, preload duration : 500 ms

Plot:
When Michael Peck's overbearing parents force him to compete in the Science Fair, he thinks he can shock everyone. Instead, Peck finds teen angst might be clichΘ, but it still sucks.

screens
 
http://rapidhdd.com/images/866450vlcsnap-2010-11-15-17h33m31s23.png 
http://www.rapidhdd.com/images/194646vlcsnap-2010-11-15-17h33m38s94.png 
http://www.rapidhdd.com/images/837358vlcsnap-2010-11-15-17h35m03s162.png 
http://www.rapidhdd.com/images/997161vlcsnap-2010-11-15-17h35m21s79.png 
http://www.rapidhdd.com/images/454522vlcsnap-2010-11-15-17h35m27s144.png